<svg width="400" height="200" viewBox="0 0 400 200" xmlns="http://www.w3.org/2000/svg">
  <defs>
    <linearGradient id="grad1" x1="0%" y1="0%" x2="100%" y2="0%">
      <stop offset="0%" style="stop-color:#FF8C00;stop-opacity:1" />
      <stop offset="100%" style="stop-color:#00AEEF;stop-opacity:1" />
    </linearGradient>
  </defs>

  <path d="M120,80 Q120,50 150,50 Q170,30 200,50 Q230,30 250,50 Q280,50 280,80 Q300,80 300,105 Q300,130 270,130 L130,130 Q100,130 100,105 Q100,80 120,80" 
        fill="none" stroke="url(#grad1)" stroke-width="4" />

  <rect x="185" y="85" width="30" height="25" rx="3" fill="url(#grad1)" />
  <path d="M190,85 L190,75 Q200,65 210,75 L210,85" fill="none" stroke="url(#grad1)" stroke-width="3" />
  
  <text x="200" y="165" font-family="Arial, sans-serif" font-size="32" font-weight="bold" text-anchor="middle" fill="#FFFFFF">
    <tspan fill="#FF8C00">infra</tspan><tspan fill="#00AEEF">oliver</tspan>
  </text>

  <text x="200" y="185" font-family="Arial, sans-serif" font-size="10" letter-spacing="2" text-anchor="middle" fill="#CCCCCC">
    LABORATÓRIO DE SIMULAÇÃO DE REDES
  </text>
</svg>
